<svg id="fffe0aa1-da46-487a-ac15-ab83fc529d20" data-name="Layer 1" xmlns="http://www.w3.org/2000/svg" viewBox="0 0 761.75 86.26"><defs><style>.b2d54ce9-e9fc-45e2-a963-1fe1c2bc0041{fill:#fff;}</style></defs><path class="b2d54ce9-e9fc-45e2-a963-1fe1c2bc0041" d="M152.93,583.07l49.76-86.2c4.37,7.55,8.52,14.41,12.24,21.49.52,1-.82,3.2-1.65,4.65-6.58,11.55-13.09,23.14-20,34.52-3.36,5.56-3.92,10.58,0,16,2,2.81,3.5,6.05,5.46,9.52Z" transform="translate(-152.93 -496.87)"/><path class="b2d54ce9-e9fc-45e2-a963-1fe1c2bc0041" d="M252.39,583.13H237.92c5-2.89,7.69-6.47,7.72-11.91C247.75,575,249.87,578.69,252.39,583.13Z" transform="translate(-152.93 -496.87)"/><path class="b2d54ce9-e9fc-45e2-a963-1fe1c2bc0041" d="M303.46,519.86a21.18,21.18,0,0,1,6.9,1,14.89,14.89,0,0,1,5.22,3,13.2,13.2,0,0,1,3.33,4.71,15.69,15.69,0,0,1,1.17,6.18,15.44,15.44,0,0,1-1.14,6.06,12.44,12.44,0,0,1-3.3,4.59,15,15,0,0,1-5.25,2.91,22,22,0,0,1-6.93,1H296v10.68h-9.24v-40.2Zm-.6,21.06a8.69,8.69,0,0,0,5.55-1.56,5.36,5.36,0,0,0,1.95-4.44,5.44,5.44,0,0,0-1.95-4.47,8.57,8.57,0,0,0-5.55-1.59H296v12.06Z" transform="translate(-152.93 -496.87)"/><path class="b2d54ce9-e9fc-45e2-a963-1fe1c2bc0041" d="M342.94,519.86q7.92,0,12.27,3.45t4.35,9.81a12.5,12.5,0,0,1-2.28,7.68,13.12,13.12,0,0,1-6.42,4.5l8.82,14.76H348.82L340.9,546.5h-5.7v13.56H326v-40.2Zm-.24,19.38a8.59,8.59,0,0,0,5.28-1.41,5,5,0,0,0,0-7.74,8.59,8.59,0,0,0-5.28-1.41h-7.5v10.56Z" transform="translate(-152.93 -496.87)"/><path class="b2d54ce9-e9fc-45e2-a963-1fe1c2bc0041" d="M364.36,540a19.88,19.88,0,0,1,1.65-8,21.27,21.27,0,0,1,4.47-6.6,21.07,21.07,0,0,1,22.89-4.44,21.11,21.11,0,0,1,6.66,4.44,20.6,20.6,0,0,1,4.47,6.6,20.84,20.84,0,0,1,0,16.11A20.69,20.69,0,0,1,400,554.6a21.11,21.11,0,0,1-6.66,4.44,21,21,0,0,1-22.89-4.44A21.37,21.37,0,0,1,366,548,19.81,19.81,0,0,1,364.36,540Zm9.72-.06a11.64,11.64,0,0,0,.87,4.5,11.41,11.41,0,0,0,5.94,6.12,11,11,0,0,0,8.7,0,11.41,11.41,0,0,0,5.94-6.12,11.64,11.64,0,0,0,.87-4.5,11.27,11.27,0,0,0-.87-4.41,11.4,11.4,0,0,0-6-6.09,10.82,10.82,0,0,0-8.64,0,11.4,11.4,0,0,0-6,6.09A11.27,11.27,0,0,0,374.08,539.9Z" transform="translate(-152.93 -496.87)"/><path class="b2d54ce9-e9fc-45e2-a963-1fe1c2bc0041" d="M419.68,519.86h9.24v29.22q0,5.64-3.24,8.64t-9.42,3a32.24,32.24,0,0,1-6.36-.72v-8.88a23.92,23.92,0,0,0,4.56.54q2.88,0,4.05-1.38a6.94,6.94,0,0,0,1.17-4.5Z" transform="translate(-152.93 -496.87)"/><path class="b2d54ce9-e9fc-45e2-a963-1fe1c2bc0041" d="M437.32,519.86h29.52v8.22H446.56v8H463.3V544H446.56v7.86h20.28v8.22H437.32Z" transform="translate(-152.93 -496.87)"/><path class="b2d54ce9-e9fc-45e2-a963-1fe1c2bc0041" d="M470.86,540a19.88,19.88,0,0,1,1.65-8,21.27,21.27,0,0,1,4.47-6.6,20.81,20.81,0,0,1,14.76-6.06,22,22,0,0,1,7.32,1.2,20.26,20.26,0,0,1,6.09,3.36,19.53,19.53,0,0,1,6.93,11.76H501.82a9.74,9.74,0,0,0-3.72-5.16,10.59,10.59,0,0,0-6.3-1.92,10.73,10.73,0,0,0-4.38.9,11.4,11.4,0,0,0-6,6.09,11.27,11.27,0,0,0-.87,4.41,11.64,11.64,0,0,0,.87,4.5,11.33,11.33,0,0,0,6,6.12,10.73,10.73,0,0,0,4.38.9,10.59,10.59,0,0,0,6.3-1.92,9.74,9.74,0,0,0,3.72-5.16h10.26a19.53,19.53,0,0,1-6.93,11.76,20.26,20.26,0,0,1-6.09,3.36,22,22,0,0,1-7.32,1.2A20.81,20.81,0,0,1,477,554.6a21.27,21.27,0,0,1-4.47-6.6A19.88,19.88,0,0,1,470.86,540Z" transform="translate(-152.93 -496.87)"/><path class="b2d54ce9-e9fc-45e2-a963-1fe1c2bc0041" d="M527.08,527.9H514.3v-8h34.86v8H536.32v32.16h-9.24Z" transform="translate(-152.93 -496.87)"/><path class="b2d54ce9-e9fc-45e2-a963-1fe1c2bc0041" d="M568.78,560.06v-40.2H585a21.85,21.85,0,0,1,8.19,1.5,19.19,19.19,0,0,1,6.45,4.17,18.77,18.77,0,0,1,4.2,6.36,21.23,21.23,0,0,1,1.5,8.07,21.46,21.46,0,0,1-1.5,8.1,18.39,18.39,0,0,1-4.2,6.36,19.43,19.43,0,0,1-6.45,4.14,21.85,21.85,0,0,1-8.19,1.5Zm9.24-9h7a11.3,11.3,0,0,0,4.32-.81,9.64,9.64,0,0,0,3.36-2.25,10.25,10.25,0,0,0,2.16-3.48,13.72,13.72,0,0,0,0-9.12,10.25,10.25,0,0,0-2.16-3.48,9.64,9.64,0,0,0-3.36-2.25,11.3,11.3,0,0,0-4.32-.81h-7Z" transform="translate(-152.93 -496.87)"/><path class="b2d54ce9-e9fc-45e2-a963-1fe1c2bc0041" d="M611.68,519.86H641.2v8.22H620.92v8h16.74V544H620.92v7.86H641.2v8.22H611.68Z" transform="translate(-152.93 -496.87)"/><path class="b2d54ce9-e9fc-45e2-a963-1fe1c2bc0041" d="M647.92,519.86h9.24v31.8h17.22v8.4H647.92Z" transform="translate(-152.93 -496.87)"/><path class="b2d54ce9-e9fc-45e2-a963-1fe1c2bc0041" d="M684,527.9H671.26v-8h34.86v8H693.28v32.16H684Z" transform="translate(-152.93 -496.87)"/><path class="b2d54ce9-e9fc-45e2-a963-1fe1c2bc0041" d="M717.22,519.86h11.34l14.76,40.2H733.9L731.26,553h-16.8l-2.58,7.08h-9.42Zm11.46,25.8-5.76-15.78-5.82,15.78Z" transform="translate(-152.93 -496.87)"/><path class="b2d54ce9-e9fc-45e2-a963-1fe1c2bc0041" d="M771.64,527.9H758.85v-8h34.86v8H780.88v32.16h-9.24Z" transform="translate(-152.93 -496.87)"/><path class="b2d54ce9-e9fc-45e2-a963-1fe1c2bc0041" d="M798.33,519.86h29.52v8.22H807.57v8h16.74V544H807.57v7.86h20.28v8.22H798.33Z" transform="translate(-152.93 -496.87)"/><path class="b2d54ce9-e9fc-45e2-a963-1fe1c2bc0041" d="M831.87,540a19.88,19.88,0,0,1,1.65-8,21.27,21.27,0,0,1,4.47-6.6,20.81,20.81,0,0,1,14.76-6.06,22,22,0,0,1,7.32,1.2,20.26,20.26,0,0,1,6.09,3.36,19.53,19.53,0,0,1,6.93,11.76H862.83a9.74,9.74,0,0,0-3.72-5.16,10.59,10.59,0,0,0-6.3-1.92,10.73,10.73,0,0,0-4.38.9,11.4,11.4,0,0,0-6,6.09,11.27,11.27,0,0,0-.87,4.41,11.64,11.64,0,0,0,.87,4.5,11.33,11.33,0,0,0,6,6.12,10.73,10.73,0,0,0,4.38.9,10.59,10.59,0,0,0,6.3-1.92,9.74,9.74,0,0,0,3.72-5.16h10.26a19.53,19.53,0,0,1-6.93,11.76,20.26,20.26,0,0,1-6.09,3.36,22,22,0,0,1-7.32,1.2A20.81,20.81,0,0,1,838,554.6a21.27,21.27,0,0,1-4.47-6.6A19.88,19.88,0,0,1,831.87,540Z" transform="translate(-152.93 -496.87)"/><path class="b2d54ce9-e9fc-45e2-a963-1fe1c2bc0041" d="M879.09,519.86h9.24v17h17.1v-17h9.24v40.2h-9.24V545.3h-17.1v14.76h-9.24Z" transform="translate(-152.93 -496.87)"/></svg>